<svg xmlns="http://www.w3.org/2000/svg" viewBox="0 0 744.57 91.11"><defs><style>.cls-1{fill:#fff;}</style></defs><title>f-tech-tech-logo</title><g id="Layer_2" data-name="Layer 2"><g id="Layer_1-2" data-name="Layer 1"><path class="cls-1" d="M125,20.55H98.6V3h71.81V20.55H144V89.63H125Z"/><path class="cls-1" d="M179,3h65.37v17H197.9V37.51h40.86v17H197.9v18.2h47v17H179Z"/><path class="cls-1" d="M247.67,46.55V46.3c0-24.64,18.57-44.81,45.18-44.81C309.19,1.49,319,6.93,327,14.86l-12.13,14c-6.69-6.06-13.5-9.78-22.16-9.78-14.61,0-25.13,12.14-25.13,27v1.81C267.6,62,279,73.69,293.13,73.53c9.67-.1,15.66-4,22.38-10.15l12.13,12.26c-8.91,9.53-18.82,15.47-35.53,15.47C266.61,91.11,247.67,71.43,247.67,46.55Z"/><path class="cls-1" d="M333,3h19.06V37.26h35.16V3h19.06V89.63H387.23V54.84H352.07V89.63H333Z"/><path class="cls-1" d="M98.61,37.87H77.52V55.38H98.61Z"/><path class="cls-1" d="M0,3.19H66V20.53H19.06V37.78H61.61V55.11H19.06V89.85H0Z"/><path id="_Compound_dot" data-name="&lt;Compound dot" class="cls-1" d="M438.86,72.12H422.71V89.63h16.15Z"/><path class="cls-1" d="M465.25,19.06H438.88V1.49h71.8V19.06H484.31V88.14H465.25Z"/><path class="cls-1" d="M517.24,1.49H582.6v17H536.18V36H577V53H536.18v18.2h47v17h-66Z"/><path class="cls-1" d="M585.94,45.06v-.25C585.94,20.18,604.51,0,631.13,0c16.34,0,26.12,5.45,34.16,13.37l-12.13,14c-6.68-6.07-13.49-9.78-22.16-9.78-14.61,0-25.13,12.13-25.13,27v1.8c0,14.13,11.41,25.83,25.53,25.68,9.67-.11,15.67-4,22.38-10.15l12.13,12.25c-8.91,9.53-18.82,15.48-35.53,15.48C604.88,89.63,585.94,69.94,585.94,45.06Z"/><path class="cls-1" d="M671.28,1.49h19.06V35.78H725.5V1.49h19.07V88.14H725.5V53.35H690.34V88.14H671.28Z"/></g></g></svg>